<svg width="80" height="80" viewBox="0 0 80 80" fill="none" xmlns="http://www.w3.org/2000/svg">
<path d="M40.011 30.1299C37.7603 34.304 34.327 37.7462 30.1577 40.0065C34.327 42.2667 37.7603 45.709 40.011 49.8831C42.2617 45.709 45.6955 42.2667 49.8648 40.0065C45.6955 37.7462 42.2617 34.304 40.011 30.1299Z" fill="#52B26E"/>
<path d="M26.7421 22.8764C26.6597 23.0517 26.5671 23.2163 26.4536 23.3814C25.6604 24.6894 24.5369 25.7811 23.2073 26.5535C21.8475 27.3467 20.2704 27.8103 18.5701 27.8103H18.5496C16.8595 27.8103 15.2828 27.3569 13.9221 26.5637C12.5622 25.7914 11.4285 24.6791 10.6251 23.3502C10.5423 23.2163 10.4702 23.0926 10.3981 22.9587C9.67697 21.6405 9.27456 20.1368 9.27456 18.5401C9.27456 15.1104 11.1401 12.1131 13.9221 10.5164C15.2828 9.72363 16.8595 9.26982 18.5496 9.26982H18.5701C20.2704 9.26982 21.8475 9.73386 23.2073 10.5266C25.9693 12.1336 27.8241 15.1206 27.8241 18.5401C27.8241 20.1056 27.4329 21.5787 26.7421 22.8764ZM34.6154 9.26982L34.5744 9.19821C33.2244 6.891 31.4003 4.91299 29.2258 3.38879C28.783 3.05912 28.3191 2.77084 27.8446 2.50301C25.1245 0.916973 21.9298 0.010273 18.5496 4.19617e-05C15.1693 4.19617e-05 11.9947 0.916977 9.27456 2.49278C6.57491 4.0379 4.30744 6.26235 2.67918 8.93038C2.61777 9.04337 2.5452 9.15683 2.48379 9.26982C2.44239 9.34189 2.40145 9.41442 2.36004 9.4865C2.31864 9.55857 2.27724 9.63064 2.2363 9.70271C0.814129 12.3294 0 15.3368 0 18.5401V37.0801H9.27456V34.5873C11.9947 36.1631 15.1693 37.0801 18.5496 37.0801C21.9089 37.0698 25.1245 36.1631 27.8446 34.5771C28.3191 34.3093 28.783 34.021 29.2258 33.6913C31.4212 32.1569 33.2658 30.1482 34.6154 27.8103C34.6256 27.8001 34.6256 27.7894 34.6363 27.7791C36.2027 25.06 37.0992 21.9084 37.0992 18.5401C37.0992 15.1615 36.2027 11.9997 34.6154 9.26982Z" fill="#2358A4"/>
<path d="M77.7642 9.70283C77.6819 9.55869 77.5888 9.40432 77.5065 9.26994C76.6719 7.80759 75.6312 6.47869 74.4352 5.30462C73.3326 4.21286 72.0756 3.26523 70.726 2.49244C70.726 2.49244 70.726 2.48221 70.7153 2.48221C69.3755 1.70988 67.9328 1.09193 66.4078 0.679962L64.1199 4.61459L61.43 9.23925L61.4095 9.26994L58.7304 13.8741L56.0195 18.5402L53.3818 23.0928H53.3715C53.3506 23.0514 53.3199 22.9998 53.2994 22.9584C53.279 22.9282 53.2683 22.9072 53.258 22.8761C52.5676 21.5788 52.1764 20.1058 52.1764 18.5402C52.1764 17.1392 52.4955 15.8001 53.0524 14.6055C53.279 14.1317 53.5367 13.6886 53.8251 13.2664L56.1024 9.33178L56.1335 9.26994L61.43 0.102924V0.000164032C58.0502 0.000164032 54.8863 0.91663 52.1555 2.50313C51.6814 2.77049 51.2176 3.05925 50.7747 3.38891C48.6003 4.91311 46.7659 6.90088 45.4261 9.2081L45.3954 9.26994C43.8081 11.9994 42.9014 15.1617 42.9014 18.5402C42.9014 21.9182 43.8081 25.0805 45.3954 27.81L45.4154 27.8406C46.7455 30.1586 48.59 32.1668 50.7747 33.6914C51.2176 34.0207 51.6814 34.3094 52.1555 34.5772C53.5055 35.3598 54.9482 35.9777 56.4834 36.4004L58.7513 32.476L61.43 27.8304L64.1199 23.1853L66.7991 18.5402L69.4787 13.9048C70.2719 15.2649 70.726 16.8509 70.726 18.5402C70.726 20.1364 70.3236 21.6406 69.6025 22.9584C69.5299 23.0928 69.4578 23.2165 69.3755 23.3499L66.7991 27.81L61.43 37.0802H61.451C64.8312 37.0802 67.9947 36.1735 70.7153 34.5977C73.5284 32.9805 75.909 30.6012 77.527 27.7895C77.6098 27.6556 77.6819 27.5217 77.7642 27.3775C79.1859 24.7509 80.0001 21.7434 80.0001 18.5402C80.0001 15.3365 79.1859 12.329 77.7642 9.70283Z" fill="#52B26E"/>
<path d="M34.533 70.7302L29.257 61.5116L29.2258 61.5734V61.4604L26.742 57.1236C26.7016 57.0311 26.6495 56.9385 26.5876 56.8562L29.2258 52.3036L29.2877 52.1902L31.5654 48.2556C30.8439 47.5344 30.0604 46.8857 29.2258 46.2985C28.783 45.9795 28.3298 45.6907 27.8553 45.4229C26.5057 44.6301 25.0421 44.0122 23.4962 43.5997L21.239 47.5037L18.5701 52.1181L18.5291 52.1902L15.8699 56.7944L13.1703 61.4604L10.5116 66.0642C9.71838 64.7148 9.27502 63.139 9.27502 61.4604V61.2163C9.27502 59.7498 9.66255 58.3098 10.3985 57.0413C10.4702 56.9078 10.5423 56.7837 10.6251 56.6605L13.2015 52.1902H13.2112L18.5701 42.9302V42.92H18.5496C15.1693 42.92 12.0058 43.8164 9.27502 45.4025C6.57491 46.9578 4.30791 49.1827 2.67965 51.8503C2.61777 51.9637 2.54567 52.0767 2.48379 52.1902C2.48379 52.18 2.47309 52.1902 2.48379 52.1902C2.40191 52.3241 2.3084 52.4785 2.23676 52.6226C0.814128 55.2493 0 58.2567 0 61.4604C0 64.6632 0.814128 67.6711 2.23676 70.2973C2.2777 70.3699 2.31864 70.4415 2.36004 70.514C2.40145 70.5861 2.44239 70.6581 2.48379 70.72V70.7302C2.54567 70.8432 2.61777 70.9567 2.67965 71.0701C3.48308 72.3883 4.44189 73.5935 5.53422 74.6644C6.64701 75.7771 7.90403 76.7349 9.27502 77.5179C10.6144 78.3005 12.0575 78.9082 13.5825 79.3202L15.8699 75.3651L18.5496 70.7302H18.5603L18.5701 70.7098L21.2497 66.0846L23.2078 69.4734L23.9293 70.7302H23.9396L27.8553 77.497C28.3298 77.2297 28.783 76.9409 29.2258 76.6215C31.4003 75.087 33.2244 73.1095 34.5744 70.8023L34.533 70.7302Z" fill="#52B26E"/>
<path d="M77.7636 52.6226C77.6817 52.4785 77.5886 52.3241 77.5063 52.1902C77.5063 52.2004 77.5063 52.2004 77.5063 52.1902C75.8883 49.3785 73.5385 47.0299 70.7253 45.4025L66.7989 52.1902L66.0773 53.4261C67.4279 54.2091 68.5718 55.3214 69.3752 56.6605C69.4576 56.7837 69.5297 56.9074 69.6018 57.0413C70.3234 58.36 70.7253 59.853 70.7253 61.4604C70.7253 64.9003 68.8603 67.8976 66.0773 69.4939C64.717 70.2769 63.1092 70.7302 61.4298 70.7302C59.7397 70.7302 58.1528 70.2666 56.7925 69.4734L56.071 70.7302L52.145 77.497C54.8758 79.0835 58.0705 79.9898 61.4507 80C64.831 80 67.994 79.104 70.7253 77.518C73.5385 75.8905 75.8985 73.5317 77.5165 70.72C77.5989 70.5856 77.6817 70.4415 77.7636 70.2973C79.1857 67.6711 79.9999 64.6632 79.9999 61.4604C79.9999 58.2568 79.1857 55.2493 77.7636 52.6226Z" fill="#2358A4"/>
<path d="M61.4301 61.4603H50.7129L45.3745 52.2212C45.3745 52.2105 45.3745 52.2003 45.395 52.1901C46.7348 49.8522 48.5794 47.8435 50.7747 46.2988C51.2176 45.9794 51.6708 45.6906 52.1453 45.4233L56.0712 52.2003L56.7928 53.4469L61.4301 61.4603Z" fill="#2358A4"/>
</svg>
