<svg width="80" height="80" viewBox="0 0 80 80" fill="none" xmlns="http://www.w3.org/2000/svg">
<path d="M40.011 30.1295C37.7603 34.3036 34.3266 37.7458 30.1573 40.006C34.3266 42.2667 37.7603 45.709 40.011 49.8826C42.2618 45.709 45.6951 42.2667 49.8643 40.006C45.6951 37.7458 42.2618 34.3036 40.011 30.1295Z" fill="white" fill-opacity="0.28"/>
<path d="M29.2259 18.5401V18.4266L29.2566 18.4778L29.2975 18.5401H29.2259ZM26.7421 22.876C26.6593 23.0513 26.5667 23.2164 26.4536 23.381C25.66 24.6889 24.5369 25.7807 23.2069 26.553C21.847 27.3463 20.2704 27.8098 18.5701 27.8098H18.5496C16.8595 27.8098 15.2824 27.3565 13.9221 26.5637C12.5623 25.7914 11.4285 24.6787 10.6246 23.3503C10.5423 23.2164 10.4702 23.0927 10.3976 22.9588C9.67651 21.6401 9.27456 20.1364 9.27456 18.5401C9.27456 15.11 11.1396 12.1127 13.9221 10.516C15.2824 9.72324 16.8595 9.26988 18.5496 9.26988H18.5701C20.2704 9.26988 21.847 9.73347 23.2069 10.5267C25.9693 12.1337 27.8242 15.1207 27.8242 18.5401C27.8242 20.1052 27.4329 21.5782 26.7421 22.876ZM23.9187 27.8098L23.9284 27.7996L23.9391 27.8098H23.9187ZM13.201 9.25965L13.2112 9.26988H13.1903L13.201 9.25965ZM2.46286 27.8098L2.47309 27.7996C2.47309 27.8098 2.47309 27.8098 2.48333 27.8098H2.46286ZM34.6154 9.26988H34.5326L34.574 9.19781C33.2244 6.89061 31.4003 4.91307 29.2259 3.38841C28.7825 3.05921 28.3187 2.77046 27.8446 2.5031C25.1245 0.917072 21.9606 0.00990295 18.5803 0.000137329H18.5701H18.5496C15.1693 0.000137329 12.0054 0.906376 9.28526 2.48218C9.27456 2.48218 9.27456 2.4924 9.27456 2.4924C6.57491 4.03752 4.30744 6.26243 2.67918 8.92999C2.61731 9.04344 2.5452 9.15643 2.48333 9.26988H2.47309C2.47309 9.26988 2.48333 9.26988 2.48333 9.28011C2.44239 9.35219 2.40098 9.41403 2.35958 9.4861C2.31864 9.55863 2.27724 9.63024 2.23583 9.70231C0.814129 12.329 0 15.3364 0 18.5401V37.0796H9.27456V34.5873C9.27456 34.5873 9.27456 34.5976 9.28526 34.5976C12.0054 36.1734 15.1693 37.0796 18.5496 37.0796H18.5701H18.6115C21.9708 37.0698 25.1245 36.1631 27.8446 34.5766C28.3187 34.3093 28.7825 34.0205 29.2259 33.6913C31.4207 32.1564 33.2653 30.1477 34.6154 27.8098C34.6256 27.7996 34.6256 27.7894 34.6359 27.7787C36.2022 25.0595 37.0992 21.9079 37.0992 18.5401C37.0992 15.1611 36.2022 11.9998 34.6154 9.26988Z" fill="white" fill-opacity="0.28"/>
<path d="M50.7739 18.5502V18.5405H50.7841L50.7739 18.5502ZM50.7739 27.8097H50.6296L50.7739 27.5731V27.8097ZM77.7639 9.70268C77.6811 9.55853 77.5987 9.41439 77.5159 9.28001V9.27025H77.5061C76.6711 7.80744 75.6304 6.47854 74.4348 5.30448C73.3322 4.21272 72.0752 3.26509 70.7251 2.49277C70.7251 2.49277 70.7251 2.48207 70.7144 2.48207C69.3751 1.70975 67.9325 1.0918 66.407 0.679832L64.1195 4.61445L61.4297 9.23956V9.27025H61.4087L58.73 13.874L56.0192 18.5405L53.3809 23.093H53.3707C53.3502 23.0517 53.3195 22.9996 53.2991 22.9587C53.2781 22.928 53.2679 22.907 53.2577 22.8764C52.5668 21.5786 52.1756 20.1056 52.1756 18.5405C52.1756 17.1395 52.4947 15.8004 53.0516 14.6058C53.2781 14.1316 53.5359 13.6889 53.8243 13.2667L56.102 9.33209L56.0708 9.27025H56.1332L61.4297 0.102798V3.8147e-05C58.0499 3.8147e-05 54.8859 0.916965 52.1551 2.503C51.6806 2.77036 51.2172 3.05957 50.7739 3.38878C48.5994 4.91343 46.7651 6.9012 45.4257 9.20841L45.4667 9.27025H45.3946C43.8072 11.9997 42.9005 15.1615 42.9005 18.5405C42.9005 21.9185 43.8072 25.0803 45.3946 27.8097H45.4257L45.415 27.8404C46.7446 30.1583 48.5892 32.1666 50.7739 33.6912C51.2172 34.0204 51.6806 34.3096 52.1551 34.577C53.5047 35.3595 54.9478 35.9775 56.483 36.4002L58.7505 32.4758L61.4297 27.8307V27.8097H61.4501L64.1195 23.1856L66.7987 18.5405L69.4779 13.9051C70.2716 15.2647 70.7251 16.8507 70.7251 18.5405C70.7251 20.1363 70.3227 21.6405 69.6021 22.9587C69.5295 23.093 69.4574 23.2163 69.3751 23.3502L66.7987 27.8097L61.4297 37.08H61.4501C64.8304 37.08 67.9943 36.1733 70.7144 34.5979C70.7251 34.5979 70.7251 34.5872 70.7251 34.5872C73.5388 32.9705 75.8877 30.6219 77.5061 27.8097H77.5159C77.5159 27.8097 77.5159 27.8 77.5266 27.8V27.7893C77.609 27.6554 77.6811 27.5215 77.7639 27.3773C79.1856 24.7507 79.9997 21.7432 79.9997 18.5405C79.9997 15.3368 79.1856 12.3289 77.7639 9.70268Z" fill="white" fill-opacity="0.28"/>
<path d="M23.9391 52.19L23.9289 52.1998L23.9187 52.19H23.9391ZM13.201 70.7402L13.1908 70.73H13.2112L13.201 70.7402ZM34.5326 70.73L29.257 61.5114L29.2258 61.5732V61.4602L26.7421 57.1234C26.7011 57.0309 26.6495 56.9384 26.5876 56.8556L29.2258 52.303V52.19H29.2877L31.5654 48.2554C30.8439 47.5342 30.0604 46.8856 29.2258 46.2983C28.7825 45.9794 28.3294 45.6906 27.8553 45.4228C26.5053 44.6295 25.0417 44.0116 23.4962 43.5996L21.239 47.5035L18.5701 52.118V52.19H18.5496H18.5287L15.8699 56.7938L13.1703 61.4602L10.5116 66.064C9.71791 64.7146 9.27503 63.1388 9.27503 61.4602V61.2157C9.27503 59.7501 9.66255 58.3096 10.3981 57.0416C10.4702 56.9077 10.5423 56.784 10.6246 56.6598L13.201 52.19H13.2112L18.5701 42.93V42.9198H18.5496C15.1693 42.9198 12.0058 43.8158 9.27503 45.4019C6.57491 46.9577 4.30744 49.1821 2.67918 51.8501C2.61731 51.9636 2.54567 52.0766 2.48333 52.19C2.47309 52.19 2.47309 52.19 2.47309 52.1998V52.2105C2.39075 52.3444 2.30841 52.4783 2.2363 52.6225C0.814129 55.2491 0 58.2566 0 61.4602C0 64.663 0.814129 67.6709 2.2363 70.2971C2.27724 70.3696 2.31864 70.4417 2.35958 70.5133C2.40098 70.5859 2.44239 70.6579 2.48333 70.7198V70.73C2.54567 70.843 2.61731 70.9564 2.67918 71.0699C3.48308 72.3881 4.44142 73.5933 5.53375 74.6646C6.64702 75.7768 7.90403 76.7347 9.27503 77.5177C10.6144 78.3003 12.057 78.908 13.582 79.3199L15.8699 75.3649L18.5496 70.73H18.5598L18.5701 70.7091L21.2497 66.0844L23.2073 69.4732L23.9289 70.73H23.9391L27.8553 77.4968C28.3294 77.2294 28.7825 76.9407 29.2258 76.6212C31.4003 75.0868 33.2244 73.1088 34.574 70.8016L34.5326 70.73Z" fill="white" fill-opacity="0.28"/>
<path d="M66.7991 70.74V70.7303H66.8088L66.7991 70.74ZM77.7638 52.6222C77.6814 52.4786 77.6088 52.3442 77.527 52.2103V52.2001C77.5163 52.2001 77.5163 52.2001 77.5163 52.1898H77.5065C75.888 49.3781 73.5387 47.0295 70.725 45.4021L66.7991 52.1898L66.0775 53.4262C67.4276 54.2087 68.5715 55.321 69.3754 56.6601C69.4578 56.7838 69.5299 56.9075 69.602 57.0414C70.3231 58.3596 70.725 59.8531 70.725 61.46C70.725 64.8999 68.86 67.8976 66.0775 69.4939C64.7172 70.2769 63.1304 70.7303 61.4505 70.7303H61.43C59.7399 70.7303 58.1525 70.2662 56.7922 69.473L56.0707 70.7303L52.1447 77.4966C54.8756 79.0831 58.0395 79.9898 61.4198 80H61.43H61.4505C64.8307 80 67.9942 79.1035 70.725 77.5175C73.5387 75.8901 75.888 73.5415 77.5065 70.7303H77.5163V70.7196C77.5991 70.5856 77.6814 70.4415 77.7638 70.2974C79.1859 67.6707 80.0001 64.6633 80.0001 61.46C80.0001 58.2564 79.1859 55.2494 77.7638 52.6222Z" fill="white" fill-opacity="0.28"/>
<path d="M61.4297 61.4601H50.7121L45.3737 52.221C45.3737 52.2103 45.3737 52.2001 45.3946 52.1899C46.734 49.852 48.579 47.8433 50.7739 46.2986C51.2173 45.9792 51.6704 45.6909 52.1445 45.4231L56.0704 52.1899V52.2001L56.792 53.4467L61.4297 61.4601Z" fill="white" fill-opacity="0.28"/>
</svg>
