<svg width="80" height="80" viewBox="0 0 80 80" fill="none" xmlns="http://www.w3.org/2000/svg">
<path d="M40.0105 30.1298C37.7598 34.3039 34.3265 37.7461 30.1572 40.0064C34.3265 42.2666 37.7598 45.7089 40.0105 49.883C42.2612 45.7089 45.695 42.2666 49.8642 40.0064C45.695 37.7461 42.2612 34.3039 40.0105 30.1298Z" fill="black" fill-opacity="0.22"/>
<path d="M26.742 22.8764C26.6597 23.0517 26.5671 23.2163 26.4536 23.3813C25.6604 24.6893 24.5369 25.7811 23.2073 26.5534C21.8475 27.3467 20.2704 27.8102 18.57 27.8102H18.5496C16.8594 27.8102 15.2828 27.3569 13.922 26.5636C12.5622 25.7913 11.4285 24.6791 10.6251 23.3502C10.5423 23.2163 10.4701 23.0926 10.398 22.9587C9.67695 21.6405 9.27454 20.1367 9.27454 18.54C9.27454 15.1103 11.1401 12.1131 13.922 10.5164C15.2828 9.72358 16.8594 9.26977 18.5496 9.26977H18.57C20.2704 9.26977 21.8475 9.73381 23.2073 10.5266C25.9693 12.1336 27.8241 15.1206 27.8241 18.54C27.8241 20.1056 27.4328 21.5786 26.742 22.8764ZM34.6153 9.26977L34.5744 9.19816C33.2243 6.89095 31.4002 4.91294 29.2258 3.38874C28.7829 3.05907 28.3191 2.77079 27.8446 2.50296C25.1244 0.916925 21.9298 0.0102247 18.5496 -4.78287e-06C15.1693 -4.78287e-06 11.9947 0.916928 9.27454 2.49273C6.57489 4.03785 4.30743 6.2623 2.67918 8.93033C2.61777 9.04332 2.54519 9.15678 2.48379 9.26977C2.44238 9.34184 2.40144 9.41437 2.36004 9.48645C2.31863 9.55852 2.27723 9.63059 2.23629 9.70266C0.814127 12.3293 0 15.3368 0 18.54V37.08H9.27454V34.5873C11.9947 36.1631 15.1693 37.08 18.5496 37.08C21.9089 37.0698 25.1244 36.1631 27.8446 34.577C28.3191 34.3092 28.7829 34.0209 29.2258 33.6913C31.4211 32.1568 33.2657 30.1481 34.6153 27.8102C34.6256 27.8 34.6255 27.7893 34.6362 27.7791C36.2026 25.0599 37.0991 21.9083 37.0991 18.54C37.0991 15.1615 36.2026 11.9996 34.6153 9.26977Z" fill="black" fill-opacity="0.22"/>
<path d="M77.7642 9.70287C77.6818 9.55873 77.5888 9.40436 77.5064 9.26998C76.6718 7.80763 75.6312 6.47873 74.4351 5.30466C73.3325 4.2129 72.0755 3.26527 70.7259 2.49248C70.7259 2.49248 70.7259 2.48225 70.7152 2.48225C69.3754 1.70993 67.9328 1.09198 66.4078 0.680007L64.1199 4.61463L61.43 9.23929L61.4095 9.26998L58.7303 13.8742L56.0195 18.5402L53.3817 23.0928H53.3715C53.3506 23.0514 53.3199 22.9998 53.2994 22.9584C53.2789 22.9282 53.2682 22.9073 53.258 22.8761C52.5676 21.5788 52.1764 20.1058 52.1764 18.5402C52.1764 17.1392 52.4955 15.8001 53.0524 14.6056C53.2789 14.1318 53.5367 13.6887 53.8251 13.2665L56.1023 9.33182L56.1335 9.26998L61.43 0.102968V0.00020884C58.0502 0.00020884 54.8863 0.916674 52.1554 2.50317C51.6814 2.77054 51.2176 3.05929 50.7747 3.38896C48.6003 4.91315 46.7659 6.90093 45.4261 9.20814L45.3954 9.26998C43.8081 11.9994 42.9014 15.1617 42.9014 18.5402C42.9014 21.9183 43.8081 25.0806 45.3954 27.81L45.4154 27.8407C46.7454 30.1586 48.59 32.1668 50.7747 33.6915C51.2176 34.0207 51.6814 34.3094 52.1554 34.5773C53.5055 35.3598 54.9481 35.9778 56.4833 36.4004L58.7513 32.476L61.43 27.8305L64.1199 23.1853L66.799 18.5402L69.4787 13.9049C70.2719 15.2649 70.7259 16.851 70.7259 18.5402C70.7259 20.1365 70.3235 21.6407 69.6024 22.9584C69.5299 23.0928 69.4577 23.2165 69.3754 23.3499L66.799 27.81L61.43 37.0802H61.4509C64.8312 37.0802 67.9946 36.1735 70.7152 34.5977C73.5284 32.9805 75.9089 30.6012 77.5269 27.7895C77.6097 27.6556 77.6818 27.5217 77.7642 27.3776C79.1859 24.7509 80 21.7434 80 18.5402C80 15.3365 79.1859 12.3291 77.7642 9.70287Z" fill="black" fill-opacity="0.22"/>
<path d="M34.533 70.7301L29.257 61.5115L29.2258 61.5733V61.4603L26.742 57.1235C26.7015 57.031 26.6494 56.9385 26.5876 56.8561L29.2258 52.3036L29.2877 52.1901L31.5654 48.2555C30.8438 47.5343 30.0604 46.8857 29.2258 46.2984C28.7829 45.9794 28.3298 45.6907 27.8553 45.4228C26.5057 44.6301 25.0421 44.0121 23.4962 43.5997L21.239 47.5036L18.57 52.118L18.5291 52.1901L15.8699 56.7943L13.1703 61.4603L10.5116 66.0641C9.71836 64.7147 9.27501 63.1389 9.27501 61.4603V61.2162C9.27501 59.7497 9.66253 58.3097 10.3985 57.0412C10.4701 56.9078 10.5423 56.7836 10.6251 56.6604L13.2014 52.1901H13.2112L18.57 42.9301V42.9199H18.5496C15.1693 42.9199 12.0058 43.8163 9.27501 45.4024C6.5749 46.9577 4.3079 49.1826 2.67964 51.8502C2.61777 51.9637 2.54566 52.0767 2.48379 52.1901C2.48379 52.1799 2.47309 52.1901 2.48379 52.1901C2.40191 52.324 2.3084 52.4784 2.23676 52.6225C0.814127 55.2492 0 58.2567 0 61.4603C0 64.6631 0.814127 67.671 2.23676 70.2972C2.2777 70.3698 2.31863 70.4414 2.36004 70.5139C2.40144 70.586 2.44238 70.6581 2.48379 70.7199V70.7301C2.54566 70.8431 2.61777 70.9566 2.67964 71.07C3.48307 72.3882 4.44188 73.5934 5.53421 74.6643C6.647 75.777 7.90402 76.7348 9.27501 77.5178C10.6144 78.3004 12.0575 78.9081 13.5824 79.3201L15.8699 75.365L18.5496 70.7301H18.5602L18.57 70.7097L21.2497 66.0845L23.2078 69.4733L23.9293 70.7301H23.9395L27.8553 77.4969C28.3298 77.2296 28.7829 76.9408 29.2258 76.6214C31.4002 75.087 33.2243 73.1094 34.5744 70.8022L34.533 70.7301Z" fill="black" fill-opacity="0.22"/>
<path d="M77.764 52.6226C77.6821 52.4785 77.5891 52.3241 77.5067 52.1902C77.5067 52.2004 77.5067 52.2005 77.5067 52.1902C75.8887 49.3785 73.5389 47.0299 70.7258 45.4025L66.7993 52.1902L66.0778 53.4261C67.4283 54.2091 68.5723 55.3214 69.3757 56.6605C69.4581 56.7837 69.5302 56.9074 69.6023 57.0413C70.3238 58.36 70.7258 59.853 70.7258 61.4605C70.7258 64.9004 68.8607 67.8976 66.0778 69.4939C64.7175 70.2769 63.1097 70.7302 61.4303 70.7302C59.7402 70.7302 58.1533 70.2666 56.793 69.4734L56.0715 70.7302L52.1455 77.497C54.8763 79.0835 58.071 79.9898 61.4512 80C64.8315 80 67.9945 79.104 70.7258 77.518C73.5389 75.8905 75.899 73.5317 77.517 70.72C77.5993 70.5856 77.6821 70.4415 77.764 70.2973C79.1862 67.6711 80.0003 64.6632 80.0003 61.4605C80.0003 58.2568 79.1862 55.2493 77.764 52.6226Z" fill="black" fill-opacity="0.22"/>
<path d="M61.4305 61.4602H50.7134L45.375 52.2212C45.375 52.2105 45.375 52.2002 45.3955 52.19C46.7353 49.8521 48.5799 47.8434 50.7752 46.2987C51.2181 45.9793 51.6712 45.6906 52.1458 45.4232L56.0717 52.2002L56.7933 53.4468L61.4305 61.4602Z" fill="black" fill-opacity="0.22"/>
</svg>
