<svg width="434" height="457" viewBox="0 0 434 457" fill="none" xmlns="http://www.w3.org/2000/svg">
<path d="M433.174 348.845L366.993 233.209L366.602 233.985V232.567L335.446 178.167C334.938 177.006 334.285 175.846 333.509 174.813L366.602 117.707L367.378 116.284L395.949 66.9286C386.898 57.8823 377.071 49.7459 366.602 42.3793C361.047 38.3782 355.363 34.7562 349.411 31.3966C332.482 21.4521 314.123 13.7006 294.731 8.52716L266.417 57.4973L232.938 115.38L232.425 116.284L199.069 174.038L165.205 232.567L131.855 290.316C121.905 273.39 116.344 253.623 116.344 232.567V229.505C116.344 211.109 121.205 193.046 130.437 177.135C131.335 175.461 132.24 173.904 133.279 172.358L165.596 116.284H165.719L232.938 0.128265V-3.05176e-05H232.682C190.28 -3.05176e-05 150.599 11.2451 116.344 31.14C82.4741 50.6499 54.0374 78.5587 33.6129 112.02C32.8368 113.443 31.9323 114.861 31.1561 116.284C31.1561 116.155 31.0219 116.284 31.1561 116.284C30.1291 117.963 28.9561 119.9 28.0574 121.708C10.2122 154.656 0 192.381 0 232.567C0 272.742 10.2122 310.473 28.0574 343.415C28.5709 344.325 29.0845 345.223 29.6038 346.133C30.1232 347.037 30.6368 347.941 31.1561 348.717V348.845C31.9323 350.263 32.8368 351.686 33.6129 353.109C43.6909 369.644 55.718 384.762 69.42 398.195C83.3786 412.152 99.1464 424.167 116.344 433.989C133.144 443.805 151.246 451.428 170.375 456.596L199.069 406.984L232.682 348.845H232.816L232.938 348.589L266.551 290.572L291.113 333.08L300.164 348.845H300.293L349.411 433.727C355.363 430.373 361.047 426.751 366.602 422.744C393.878 403.496 416.759 378.691 433.694 349.749L433.174 348.845Z" fill="#52B26E" fill-opacity="0.15"/>
</svg>
