<svg  width="31" height="31" viewBox="0 0 31 31" fill="none" xmlns="http://www.w3.org/2000/svg">
<path d="M15.02 4.33287C17.6567 9.20641 21.6802 13.2239 26.563 15.8601C21.6802 18.4963 17.6567 22.5138 15.02 27.3873C12.3833 22.5138 8.35986 18.4963 3.47705 15.8601C8.36963 13.2239 12.3833 9.20641 15.02 4.33287ZM15.02 0.860107L13.5649 3.54494C11.0747 8.15583 7.31494 11.9107 2.69579 14.4107L0.0200195 15.8601L2.69579 17.3095C7.31494 19.8095 11.0747 23.5644 13.5649 28.1753L15.02 30.8601L16.4751 28.1753C18.9653 23.5644 22.7251 19.8095 27.3442 17.3095L30.02 15.8601L27.3442 14.4107C22.7251 11.9107 18.9653 8.15583 16.4751 3.54494L15.02 0.860107Z" fill="#2659A4"/>
</svg>
