<svg width="24" height="24" viewBox="0 0 24 24" fill="none" xmlns="http://www.w3.org/2000/svg">
<path d="M21.25 9.81818C21.25 13.3297 18.9316 16.6908 16.4603 19.252C15.2408 20.5157 14.0187 21.5493 13.1006 22.2671C12.6445 22.6237 12.2649 22.9012 12 23.0891C11.7351 22.9012 11.3555 22.6237 10.8994 22.2671C9.98127 21.5493 8.75917 20.5157 7.53971 19.252C5.06841 16.6908 2.75 13.3297 2.75 9.81818C2.75 7.41764 3.72114 5.11257 5.45437 3.41085C7.18807 1.70868 9.54235 0.75 12 0.75C14.4576 0.75 16.8119 1.70868 18.5456 3.41085C20.2789 5.11257 21.25 7.41764 21.25 9.81818Z" stroke="#464646" stroke-width="1.5" stroke-linecap="round" stroke-linejoin="round"/>
<path d="M12 13C13.6569 13 15 11.6569 15 10C15 8.34315 13.6569 7 12 7C10.3431 7 9 8.34315 9 10C9 11.6569 10.3431 13 12 13Z" stroke="#464646" stroke-width="1.5" stroke-linecap="round" stroke-linejoin="round"/>
</svg>
